<svg version="1.1" xmlns="http://www.w3.org/2000/svg" xmlns:xlink="http://www.w3.org/1999/xlink" width="470.90517" height="225.34675" viewBox="0,0,470.90517,225.34675"><defs><linearGradient x1="239.125" y1="55.5" x2="239.125" y2="267.5" gradientUnits="userSpaceOnUse" id="color-1"><stop offset="0" stop-color="#e60000"/><stop offset="1" stop-color="#990000"/></linearGradient></defs><g transform="translate(-0.875,-53.84056)"><g data-paper-data="{&quot;isPaintingLayer&quot;:true}" fill-rule="nonzero" stroke="#000000" stroke-linecap="butt" stroke-linejoin="miter" stroke-miterlimit="10" stroke-dasharray="" stroke-dashoffset="0" style="mix-blend-mode: normal"><path d="M2.125,233.5v-120l5.98862,-5.34235c0,0 90.9279,1.51929 120.64626,-5.25859c37.55076,-8.56421 104.36513,-37.39906 104.36513,-37.39906c0,0 16.61808,42.24846 36.09412,46.57647c40.99221,9.10938 200.90588,109.42353 200.90588,109.42353l-7,13c0,0 -81.54748,0.17984 -120.90576,7.50627c-37.55734,6.9912 -106.09424,35.49373 -106.09424,35.49373c0,0 -9.02809,-30.33423 -33.75626,-34.93731c-42.33862,-7.88121 -200.24375,-9.06269 -200.24375,-9.06269z" fill="#b05b5b" stroke-width="2.5"/><path d="M8.125,224.5v-117c0,0 85.20594,-5.83644 123.63488,-14.60094c37.55076,-8.56421 104.36513,-37.39906 104.36513,-37.39906c0,0 16.61808,42.24846 36.09412,46.57647c40.99221,9.10938 197.90588,5.42353 197.90588,5.42353v117c0,0 -85.54748,0.17984 -124.90576,7.50627c-37.55734,6.9912 -106.09424,35.49373 -106.09424,35.49373c0,0 -9.02809,-30.33423 -33.75626,-34.93731c-42.33862,-7.88121 -197.24374,-8.06269 -197.24374,-8.06269z" fill="url(#color-1)" stroke-width="2.5"/><text transform="translate(20,183.003) scale(1.71343,1.71343)" font-size="40" xml:space="preserve" fill="#ffffff" fill-rule="nonzero" stroke="#000000" stroke-width="1" stroke-linecap="butt" stroke-linejoin="miter" stroke-miterlimit="10" stroke-dasharray="" stroke-dashoffset="0" font-family="Sans Serif" font-weight="normal" text-anchor="start" style="mix-blend-mode: normal"><tspan x="0" dy="0">Recipe Finder</tspan></text></g></g></svg>